<svg width="195" height="41" viewBox="0 0 195 41" fill="none" xmlns="http://www.w3.org/2000/svg">
<rect width="195" height="41" fill="#982EEE"/>
<text fill="white" xml:space="preserve" style="white-space: pre" font-family="Inter" font-size="11" font-weight="600" letter-spacing="0em"><tspan x="36" y="30.5">Unicode coverage</tspan></text>
<path d="M28.1191 30.6087C28.1191 32.0256 27.7499 33.0313 27.1741 33.7643C26.5926 34.5044 25.7565 35.0225 24.7305 35.3798C22.6487 36.1049 19.9703 36.1118 17.5729 36.1118C15.1765 36.1118 12.4608 36.1051 10.3421 35.3788C9.29684 35.0205 8.44311 34.5009 7.84948 33.7597C7.2623 33.0264 6.88617 32.0224 6.88617 30.6087C6.88617 27.9654 7.45365 24.7483 9.07118 22.2137C10.6647 19.7166 13.2979 17.8417 17.5729 17.8417C21.6252 17.8417 24.2292 19.7199 25.8474 22.2363C27.486 24.7844 28.1191 28.0051 28.1191 30.6087Z" stroke="white"/>
<path fill-rule="evenodd" clip-rule="evenodd" d="M16.7523 26.4209C16.9407 26.6099 17.1959 26.7158 17.4621 26.7158C17.7283 26.7158 17.9836 26.6099 18.172 26.4209C19.2537 25.3357 21.1899 23.3931 21.1899 23.3931C22.5883 24.4997 23.4856 26.215 23.4856 28.1402C23.4856 29.8933 22.74 31.4729 21.5503 32.577C21.353 32.7535 21.0531 32.7451 20.8667 32.5576C20.6506 32.3462 20.3705 32.0652 20.1449 31.8394C20.0468 31.7404 19.9938 31.6051 19.9987 31.4659C20.0032 31.3261 20.0656 31.1948 20.1707 31.1033C20.9758 30.3728 21.4779 29.3149 21.4779 28.1402H17.4621H13.4464C13.4464 29.3149 13.9485 30.3728 14.7486 31.1093C14.8522 31.1993 14.9132 31.3286 14.9181 31.4659C14.9231 31.6032 14.8705 31.7364 14.7739 31.8334C14.5538 32.0652 14.2737 32.3462 14.0605 32.5605C13.8727 32.7495 13.5698 32.758 13.371 32.5804C12.1843 31.4729 11.4387 29.8933 11.4387 28.1402C11.4387 26.215 12.3365 24.4997 13.7344 23.3931C13.7344 23.3931 15.6706 25.3357 16.7523 26.4209Z" fill="white"/>
<rect width="195" height="13" fill="#C87056"/>
<rect width="${progress}" height="13" fill="#70C856"/>
<text fill="white" xml:space="preserve" style="white-space: pre" font-family="Inter" font-size="6" font-weight="bold" letter-spacing="0em"><tspan x="149.965" y="8.68182">${missing} missing</tspan></text>
<text fill="white" xml:space="preserve" style="white-space: pre" font-family="Inter" font-size="6" font-weight="bold" letter-spacing="0em"><tspan x="7" y="8.68182">${satisfied} satisfied</tspan></text>
</svg>
